<?xml version="1.0" encoding="UTF-8" standalone="no"?>
<svg
   viewBox="0 0 124.94022 80.400002"
   version="1.1"
   id="svg1"
   width="124.94022"
   height="80.400002"
   xmlns="http://www.w3.org/2000/svg"
   xmlns:svg="http://www.w3.org/2000/svg">
  <defs
     id="defs1" />
  <path
     d="m 123.34022,28.1 c -4.3,-2.5 -10,-2.8 -14.8,-1.4 -0.6,-5.2 -4,-9.7 -8,-12.9 l -1.599995,-1.3 -1.4,1.6 c -2.7,3.1 -3.5,8.3 -3.1,12.3 0.3,2.9 1.2,5.9 3,8.3 -1.4,0.8 -2.9,1.9 -4.3,2.4 -2.8,1 -5.9,2 -8.9,2 h -6.7 V 25 h -13 V 0 h -15 v 12 h -25 v 13 h -13 V 39 H 0.34022478 l -0.2,1.5 c -0.5,6.4 0.3,12.6 3.00000002,18.5 l 1.1,2.2 0.1,0.2 c 7.9000002,13.4 21.7000002,19 36.8000002,19 29.2,0 53.3,-13.1 64.299995,-40.6 7.4,0.4 15,-1.8 18.6,-8.9 l 0.9,-1.8 z M 26.540225,15 h 10 v 11 h -10 z m 13.1,44.2 c 0,1.7 -1.4,3.1 -3.1,3.1 -1.7,0 -3.1,-1.4 -3.1,-3.1 0,-1.7 1.4,-3.1 3.1,-3.1 1.7,0.1 3.1,1.4 3.1,3.1 z m -13.1,-31.2 h 10 v 11 h -10 z m -13,0 h 11 v 11 h -11 z m 27.7,50.2 c -15.8,-0.1 -24.3,-5.4 -31.3000002,-12.4 2.1000002,0.1 4.1000002,0.2 5.9000002,0.2 1.6,0 3.2,0 4.7,-0.1 3.9,-0.2 7.3,-0.7 10.1,-1.5 2.3,5.3 6.5,10.2 14,13.8 z m 8.3,-39.2 h -11 V 28 h 11 z m 0,-13 h -11 V 15 h 11 z m 13,13 h -11 V 28 h 11 z m 0,-13 h -11 V 15 h 11 z m 0,-13 h -11 V 2 h 11 z m 13,26 h -11 V 28 h 11 z m -38.2,18.2 c -0.2,-0.1 -0.5,-0.2 -0.8,-0.2 -1.2,0 -2.2,1 -2.2,2.2 0,1.2 1,2.2 2.2,2.2 1.2,0 2.2,-1 2.2,-2.2 0,-0.3 -0.1,-0.6 -0.2,-0.8 -0.2,0.3 -0.4,0.5 -0.8,0.5 -0.5,0 -0.9,-0.4 -0.9,-0.9 0.1,-0.4 0.3,-0.7 0.5,-0.8 z"
     fill="#019bc6"
     id="path1" />
</svg>
